<?xml version="1.0" encoding="UTF-8" standalone="no"?>
<!DOCTYPE svg PUBLIC "-//W3C//DTD SVG 1.1//EN" "http://www.w3.org/Graphics/SVG/1.1/DTD/svg11.dtd">
<svg width="100%" height="100%" viewBox="0 0 431 105" version="1.1" xmlns="http://www.w3.org/2000/svg" xmlns:xlink="http://www.w3.org/1999/xlink" xml:space="preserve" xmlns:serif="http://www.serif.com/" style="fill-rule:evenodd;clip-rule:evenodd;stroke-linejoin:round;stroke-miterlimit:2;">
    <g transform="matrix(1,0,0,1,-81.9317,-63.3195)">
        <g transform="matrix(0.254623,0,0,0.254623,-44.3706,-20.7288)">
            <path d="M906.336,330.089L496.037,330.089L496.037,740.388L906.336,740.388L906.336,330.089ZM721.469,447.999L721.469,622.479L844.876,622.479L844.876,590.222L759.835,590.222L759.835,447.999L721.469,447.999ZM557.497,447.999L557.497,622.479L632.763,622.479C646.122,622.479 657.729,620.239 667.585,615.759C677.442,611.278 685.669,605.129 692.267,597.309C698.865,589.489 703.793,580.203 707.051,569.451C710.309,558.698 711.939,546.969 711.939,534.261C711.939,519.762 709.943,507.136 705.951,496.384C701.96,485.632 696.421,476.672 689.334,469.503C682.248,462.335 673.858,456.959 664.164,453.375C654.471,449.791 644.004,447.999 632.763,447.999L557.497,447.999ZM595.863,590.222L595.863,480.256L623.232,480.256C632.681,480.256 640.623,481.6 647.058,484.288C653.493,486.976 658.666,490.845 662.576,495.895C666.486,500.946 669.296,507.014 671.007,514.101C672.717,521.188 673.573,529.13 673.573,537.927C673.573,547.539 672.351,555.684 669.907,562.364C667.463,569.043 664.205,574.46 660.132,578.614C656.059,582.769 651.416,585.742 646.203,587.534C640.99,589.326 635.614,590.222 630.075,590.222L595.863,590.222Z" style="fill:rgb(31,112,184);"/>
            <g transform="matrix(0.237841,0,0,0.237841,748.834,194.395)">
                <g transform="matrix(682.555,0,0,682.555,1034.34,1320.79)">
                    <path d="M0.226,-0.132L0.226,-0.582L0.338,-0.582C0.377,-0.582 0.409,-0.576 0.436,-0.566C0.462,-0.555 0.483,-0.539 0.499,-0.518C0.515,-0.497 0.527,-0.472 0.534,-0.444C0.541,-0.415 0.544,-0.382 0.544,-0.346C0.544,-0.307 0.539,-0.273 0.529,-0.246C0.519,-0.219 0.506,-0.197 0.489,-0.18C0.472,-0.163 0.453,-0.15 0.432,-0.143C0.411,-0.136 0.389,-0.132 0.366,-0.132L0.226,-0.132ZM0.069,-0.714L0.069,-0L0.377,-0C0.432,-0 0.479,-0.009 0.52,-0.028C0.56,-0.046 0.594,-0.071 0.621,-0.103C0.648,-0.135 0.668,-0.173 0.681,-0.217C0.694,-0.261 0.701,-0.309 0.701,-0.361C0.701,-0.42 0.693,-0.472 0.677,-0.516C0.66,-0.56 0.638,-0.597 0.609,-0.626C0.58,-0.655 0.545,-0.677 0.506,-0.692C0.466,-0.707 0.423,-0.714 0.377,-0.714L0.069,-0.714Z" style="fill-rule:nonzero;"/>
                </g>
                <g transform="matrix(682.555,0,0,682.555,1519.64,1320.79)">
                    <path d="M0.2,-0.597L0.2,-0.714L0.058,-0.714L0.058,-0.597L0.2,-0.597ZM0.058,-0.517L0.058,-0L0.2,-0L0.2,-0.517L0.058,-0.517Z" style="fill-rule:nonzero;"/>
                </g>
                <g transform="matrix(682.555,0,0,682.555,1675.26,1320.79)">
                    <path d="M0.295,-0.122C0.273,-0.122 0.255,-0.127 0.24,-0.136C0.225,-0.145 0.214,-0.157 0.205,-0.172C0.196,-0.187 0.189,-0.203 0.186,-0.222C0.182,-0.24 0.18,-0.258 0.18,-0.277C0.18,-0.296 0.182,-0.315 0.187,-0.333C0.191,-0.35 0.198,-0.366 0.208,-0.38C0.217,-0.393 0.229,-0.404 0.244,-0.412C0.258,-0.42 0.275,-0.424 0.295,-0.424C0.318,-0.424 0.338,-0.42 0.353,-0.411C0.368,-0.402 0.381,-0.391 0.39,-0.376C0.399,-0.361 0.406,-0.345 0.41,-0.326C0.414,-0.307 0.416,-0.286 0.416,-0.265C0.416,-0.246 0.414,-0.229 0.409,-0.212C0.404,-0.195 0.396,-0.179 0.386,-0.166C0.376,-0.153 0.363,-0.142 0.348,-0.134C0.333,-0.126 0.315,-0.122 0.295,-0.122ZM0.551,-0.033L0.551,-0.517L0.416,-0.517L0.416,-0.448L0.414,-0.448C0.397,-0.478 0.375,-0.499 0.35,-0.512C0.324,-0.525 0.294,-0.531 0.26,-0.531C0.224,-0.531 0.192,-0.524 0.165,-0.51C0.137,-0.496 0.114,-0.477 0.095,-0.454C0.076,-0.43 0.062,-0.403 0.053,-0.372C0.043,-0.341 0.038,-0.308 0.038,-0.275C0.038,-0.24 0.042,-0.206 0.051,-0.175C0.059,-0.143 0.072,-0.115 0.09,-0.092C0.108,-0.068 0.131,-0.049 0.159,-0.036C0.187,-0.022 0.22,-0.015 0.259,-0.015C0.29,-0.015 0.32,-0.022 0.349,-0.035C0.377,-0.048 0.399,-0.068 0.414,-0.095L0.416,-0.095L0.416,-0.027C0.417,0.01 0.408,0.04 0.39,0.064C0.371,0.088 0.342,0.1 0.302,0.1C0.277,0.1 0.254,0.095 0.235,0.085C0.216,0.074 0.203,0.056 0.196,0.029L0.055,0.029C0.057,0.058 0.065,0.084 0.08,0.105C0.094,0.126 0.112,0.143 0.134,0.156C0.155,0.169 0.179,0.179 0.206,0.186C0.232,0.192 0.258,0.195 0.283,0.195C0.342,0.195 0.39,0.187 0.425,0.171C0.46,0.155 0.487,0.135 0.506,0.113C0.525,0.09 0.537,0.065 0.543,0.038C0.548,0.011 0.551,-0.012 0.551,-0.033Z" style="fill-rule:nonzero;"/>
                </g>
                <g transform="matrix(682.555,0,0,682.555,2071.83,1320.79)">
                    <path d="M0.2,-0.597L0.2,-0.714L0.058,-0.714L0.058,-0.597L0.2,-0.597ZM0.058,-0.517L0.058,-0L0.2,-0L0.2,-0.517L0.058,-0.517Z" style="fill-rule:nonzero;"/>
                </g>
                <g transform="matrix(682.555,0,0,682.555,2241.1,1320.79)">
                    <path d="M0.234,-0.517L0.234,-0.672L0.092,-0.672L0.092,-0.517L0.006,-0.517L0.006,-0.422L0.092,-0.422L0.092,-0.117C0.092,-0.091 0.096,-0.07 0.105,-0.054C0.114,-0.038 0.126,-0.026 0.141,-0.017C0.156,-0.008 0.173,-0.003 0.193,0.001C0.212,0.004 0.233,0.005 0.255,0.005C0.269,0.005 0.283,0.005 0.298,0.004C0.313,0.003 0.326,0.002 0.338,-0L0.338,-0.11C0.331,-0.109 0.324,-0.108 0.317,-0.107C0.31,-0.106 0.302,-0.106 0.294,-0.106C0.27,-0.106 0.254,-0.11 0.246,-0.118C0.238,-0.126 0.234,-0.142 0.234,-0.166L0.234,-0.422L0.338,-0.422L0.338,-0.517L0.234,-0.517Z" style="fill-rule:nonzero;"/>
                </g>
                <g transform="matrix(682.555,0,0,682.555,2481.36,1320.79)">
                    <path d="M0.048,-0.358C0.05,-0.391 0.058,-0.419 0.073,-0.441C0.088,-0.463 0.106,-0.481 0.129,-0.494C0.152,-0.507 0.177,-0.517 0.206,-0.523C0.234,-0.528 0.262,-0.531 0.291,-0.531C0.317,-0.531 0.343,-0.529 0.37,-0.526C0.397,-0.522 0.421,-0.515 0.443,-0.504C0.465,-0.493 0.483,-0.478 0.497,-0.46C0.511,-0.44 0.518,-0.415 0.518,-0.384L0.518,-0.115C0.518,-0.092 0.519,-0.069 0.522,-0.048C0.525,-0.027 0.529,-0.011 0.536,-0L0.392,-0C0.389,-0.008 0.387,-0.016 0.386,-0.025C0.384,-0.033 0.383,-0.041 0.382,-0.05C0.359,-0.027 0.333,-0.01 0.302,-0.001C0.271,0.008 0.24,0.013 0.208,0.013C0.183,0.013 0.16,0.01 0.139,0.004C0.118,-0.002 0.099,-0.011 0.083,-0.024C0.067,-0.037 0.055,-0.053 0.046,-0.072C0.037,-0.091 0.032,-0.114 0.032,-0.141C0.032,-0.17 0.037,-0.195 0.048,-0.214C0.058,-0.233 0.071,-0.248 0.088,-0.259C0.104,-0.27 0.123,-0.279 0.144,-0.285C0.165,-0.29 0.186,-0.295 0.207,-0.298C0.228,-0.301 0.249,-0.304 0.27,-0.306C0.291,-0.308 0.309,-0.311 0.325,-0.315C0.341,-0.319 0.354,-0.325 0.363,-0.333C0.372,-0.34 0.377,-0.351 0.376,-0.366C0.376,-0.381 0.374,-0.394 0.369,-0.403C0.364,-0.412 0.357,-0.419 0.349,-0.424C0.34,-0.428 0.331,-0.432 0.32,-0.434C0.309,-0.435 0.297,-0.436 0.284,-0.436C0.256,-0.436 0.234,-0.43 0.218,-0.418C0.202,-0.406 0.193,-0.386 0.19,-0.358L0.048,-0.358ZM0.376,-0.253C0.37,-0.248 0.363,-0.243 0.354,-0.241C0.345,-0.238 0.335,-0.235 0.325,-0.233C0.314,-0.231 0.303,-0.229 0.292,-0.228C0.281,-0.227 0.269,-0.225 0.258,-0.223C0.247,-0.221 0.237,-0.218 0.227,-0.215C0.216,-0.212 0.207,-0.207 0.2,-0.202C0.192,-0.196 0.186,-0.189 0.181,-0.18C0.176,-0.171 0.174,-0.16 0.174,-0.147C0.174,-0.134 0.176,-0.124 0.181,-0.115C0.186,-0.106 0.192,-0.099 0.2,-0.095C0.208,-0.09 0.217,-0.086 0.228,-0.084C0.239,-0.082 0.25,-0.081 0.261,-0.081C0.289,-0.081 0.311,-0.086 0.326,-0.095C0.341,-0.104 0.353,-0.116 0.36,-0.129C0.367,-0.141 0.372,-0.155 0.374,-0.168C0.375,-0.181 0.376,-0.192 0.376,-0.2L0.376,-0.253Z" style="fill-rule:nonzero;"/>
                </g>
                <g transform="matrix(682.555,0,0,682.555,2866.32,1320.79)">
                    <rect x="0.058" y="-0.714" width="0.142" height="0.714" style="fill-rule:nonzero;"/>
                </g>
                <g transform="matrix(682.555,0,0,682.555,3232.17,1320.79)">
                    <path d="M0.069,-0.714L0.069,-0L0.574,-0L0.574,-0.132L0.226,-0.132L0.226,-0.714L0.069,-0.714Z" style="fill-rule:nonzero;"/>
                </g>
                <g transform="matrix(682.555,0,0,682.555,3636.92,1320.79)">
                    <path d="M0.048,-0.358C0.05,-0.391 0.058,-0.419 0.073,-0.441C0.088,-0.463 0.106,-0.481 0.129,-0.494C0.152,-0.507 0.177,-0.517 0.206,-0.523C0.234,-0.528 0.262,-0.531 0.291,-0.531C0.317,-0.531 0.343,-0.529 0.37,-0.526C0.397,-0.522 0.421,-0.515 0.443,-0.504C0.465,-0.493 0.483,-0.478 0.497,-0.46C0.511,-0.44 0.518,-0.415 0.518,-0.384L0.518,-0.115C0.518,-0.092 0.519,-0.069 0.522,-0.048C0.525,-0.027 0.529,-0.011 0.536,-0L0.392,-0C0.389,-0.008 0.387,-0.016 0.386,-0.025C0.384,-0.033 0.383,-0.041 0.382,-0.05C0.359,-0.027 0.333,-0.01 0.302,-0.001C0.271,0.008 0.24,0.013 0.208,0.013C0.183,0.013 0.16,0.01 0.139,0.004C0.118,-0.002 0.099,-0.011 0.083,-0.024C0.067,-0.037 0.055,-0.053 0.046,-0.072C0.037,-0.091 0.032,-0.114 0.032,-0.141C0.032,-0.17 0.037,-0.195 0.048,-0.214C0.058,-0.233 0.071,-0.248 0.088,-0.259C0.104,-0.27 0.123,-0.279 0.144,-0.285C0.165,-0.29 0.186,-0.295 0.207,-0.298C0.228,-0.301 0.249,-0.304 0.27,-0.306C0.291,-0.308 0.309,-0.311 0.325,-0.315C0.341,-0.319 0.354,-0.325 0.363,-0.333C0.372,-0.34 0.377,-0.351 0.376,-0.366C0.376,-0.381 0.374,-0.394 0.369,-0.403C0.364,-0.412 0.357,-0.419 0.349,-0.424C0.34,-0.428 0.331,-0.432 0.32,-0.434C0.309,-0.435 0.297,-0.436 0.284,-0.436C0.256,-0.436 0.234,-0.43 0.218,-0.418C0.202,-0.406 0.193,-0.386 0.19,-0.358L0.048,-0.358ZM0.376,-0.253C0.37,-0.248 0.363,-0.243 0.354,-0.241C0.345,-0.238 0.335,-0.235 0.325,-0.233C0.314,-0.231 0.303,-0.229 0.292,-0.228C0.281,-0.227 0.269,-0.225 0.258,-0.223C0.247,-0.221 0.237,-0.218 0.227,-0.215C0.216,-0.212 0.207,-0.207 0.2,-0.202C0.192,-0.196 0.186,-0.189 0.181,-0.18C0.176,-0.171 0.174,-0.16 0.174,-0.147C0.174,-0.134 0.176,-0.124 0.181,-0.115C0.186,-0.106 0.192,-0.099 0.2,-0.095C0.208,-0.09 0.217,-0.086 0.228,-0.084C0.239,-0.082 0.25,-0.081 0.261,-0.081C0.289,-0.081 0.311,-0.086 0.326,-0.095C0.341,-0.104 0.353,-0.116 0.36,-0.129C0.367,-0.141 0.372,-0.155 0.374,-0.168C0.375,-0.181 0.376,-0.192 0.376,-0.2L0.376,-0.253Z" style="fill-rule:nonzero;"/>
                </g>
                <g transform="matrix(682.555,0,0,682.555,4021.89,1320.79)">
                    <path d="M0.054,-0.517L0.054,-0L0.196,-0L0.196,-0.271C0.196,-0.324 0.205,-0.362 0.222,-0.385C0.239,-0.407 0.267,-0.419 0.306,-0.419C0.34,-0.419 0.364,-0.409 0.377,-0.388C0.39,-0.367 0.397,-0.335 0.397,-0.292L0.397,-0L0.539,-0L0.539,-0.318C0.539,-0.35 0.536,-0.379 0.531,-0.406C0.525,-0.432 0.515,-0.454 0.501,-0.473C0.487,-0.491 0.468,-0.505 0.444,-0.516C0.419,-0.526 0.388,-0.531 0.35,-0.531C0.32,-0.531 0.291,-0.524 0.262,-0.511C0.233,-0.497 0.21,-0.475 0.192,-0.445L0.189,-0.445L0.189,-0.517L0.054,-0.517Z" style="fill-rule:nonzero;"/>
                </g>
                <g transform="matrix(682.555,0,0,682.555,4392.51,1320.79)">
                    <path d="M0.421,-0.26C0.421,-0.239 0.419,-0.218 0.415,-0.198C0.411,-0.178 0.404,-0.16 0.395,-0.145C0.386,-0.129 0.373,-0.116 0.358,-0.107C0.342,-0.098 0.322,-0.093 0.299,-0.093C0.277,-0.093 0.258,-0.098 0.243,-0.108C0.227,-0.117 0.214,-0.13 0.204,-0.146C0.193,-0.161 0.186,-0.179 0.181,-0.199C0.176,-0.219 0.174,-0.239 0.174,-0.259C0.174,-0.28 0.176,-0.301 0.181,-0.321C0.185,-0.34 0.192,-0.358 0.202,-0.373C0.211,-0.388 0.224,-0.401 0.24,-0.41C0.256,-0.419 0.276,-0.424 0.299,-0.424C0.322,-0.424 0.342,-0.419 0.357,-0.41C0.372,-0.401 0.385,-0.389 0.395,-0.374C0.404,-0.359 0.411,-0.341 0.415,-0.322C0.419,-0.302 0.421,-0.281 0.421,-0.26ZM0.423,-0.066L0.423,-0L0.558,-0L0.558,-0.714L0.416,-0.714L0.416,-0.454L0.414,-0.454C0.398,-0.479 0.376,-0.499 0.349,-0.512C0.321,-0.525 0.292,-0.531 0.261,-0.531C0.223,-0.531 0.19,-0.524 0.161,-0.509C0.132,-0.494 0.109,-0.474 0.09,-0.449C0.07,-0.424 0.056,-0.396 0.047,-0.364C0.037,-0.331 0.032,-0.298 0.032,-0.263C0.032,-0.227 0.037,-0.192 0.047,-0.159C0.056,-0.126 0.07,-0.096 0.09,-0.071C0.109,-0.045 0.133,-0.024 0.162,-0.01C0.191,0.006 0.225,0.013 0.264,0.013C0.298,0.013 0.329,0.007 0.356,-0.006C0.383,-0.018 0.404,-0.038 0.421,-0.066L0.423,-0.066Z" style="fill-rule:nonzero;"/>
                </g>
                <g transform="matrix(682.555,0,0,682.555,1034.34,2023.14)">
                    <path d="M0.558,-0.487C0.553,-0.508 0.545,-0.527 0.536,-0.544C0.527,-0.561 0.515,-0.576 0.5,-0.589C0.485,-0.602 0.468,-0.612 0.449,-0.619C0.429,-0.626 0.406,-0.629 0.38,-0.629C0.342,-0.629 0.309,-0.621 0.282,-0.606C0.254,-0.591 0.231,-0.57 0.214,-0.545C0.197,-0.519 0.184,-0.49 0.176,-0.457C0.167,-0.424 0.163,-0.391 0.163,-0.357C0.163,-0.323 0.167,-0.29 0.176,-0.257C0.184,-0.224 0.197,-0.195 0.214,-0.17C0.231,-0.144 0.254,-0.123 0.282,-0.108C0.309,-0.093 0.342,-0.085 0.38,-0.085C0.408,-0.085 0.433,-0.09 0.454,-0.1C0.475,-0.109 0.494,-0.123 0.509,-0.14C0.524,-0.157 0.536,-0.176 0.545,-0.199C0.554,-0.222 0.559,-0.246 0.562,-0.272L0.684,-0.272C0.681,-0.229 0.672,-0.19 0.657,-0.155C0.641,-0.12 0.62,-0.089 0.593,-0.064C0.566,-0.038 0.535,-0.018 0.499,-0.004C0.463,0.01 0.423,0.017 0.38,0.017C0.327,0.017 0.279,0.007 0.237,-0.013C0.194,-0.032 0.158,-0.059 0.129,-0.093C0.1,-0.127 0.077,-0.167 0.062,-0.212C0.046,-0.257 0.038,-0.306 0.038,-0.357C0.038,-0.408 0.046,-0.456 0.062,-0.501C0.077,-0.546 0.1,-0.586 0.129,-0.62C0.158,-0.654 0.194,-0.681 0.237,-0.701C0.279,-0.721 0.327,-0.731 0.38,-0.731C0.42,-0.731 0.458,-0.725 0.493,-0.715C0.528,-0.704 0.56,-0.688 0.587,-0.667C0.614,-0.646 0.635,-0.62 0.652,-0.59C0.669,-0.56 0.679,-0.526 0.683,-0.487L0.558,-0.487Z" style="fill-rule:nonzero;"/>
                </g>
                <g transform="matrix(682.555,0,0,682.555,1527.15,2023.14)">
                    <path d="M0.297,0.014C0.256,0.014 0.219,0.007 0.187,-0.007C0.154,-0.02 0.127,-0.039 0.105,-0.063C0.082,-0.087 0.065,-0.116 0.054,-0.149C0.042,-0.182 0.036,-0.219 0.036,-0.259C0.036,-0.298 0.042,-0.335 0.054,-0.368C0.065,-0.401 0.082,-0.43 0.105,-0.454C0.127,-0.478 0.154,-0.497 0.187,-0.511C0.219,-0.524 0.256,-0.531 0.297,-0.531C0.338,-0.531 0.375,-0.524 0.408,-0.511C0.44,-0.497 0.467,-0.478 0.49,-0.454C0.512,-0.43 0.529,-0.401 0.541,-0.368C0.552,-0.335 0.558,-0.298 0.558,-0.259C0.558,-0.219 0.552,-0.182 0.541,-0.149C0.529,-0.116 0.512,-0.087 0.49,-0.063C0.467,-0.039 0.44,-0.02 0.408,-0.007C0.375,0.007 0.338,0.014 0.297,0.014ZM0.297,-0.076C0.322,-0.076 0.344,-0.081 0.363,-0.092C0.382,-0.103 0.397,-0.117 0.409,-0.134C0.421,-0.151 0.43,-0.171 0.436,-0.193C0.441,-0.214 0.444,-0.236 0.444,-0.259C0.444,-0.281 0.441,-0.303 0.436,-0.325C0.43,-0.347 0.421,-0.367 0.409,-0.384C0.397,-0.401 0.382,-0.414 0.363,-0.425C0.344,-0.436 0.322,-0.441 0.297,-0.441C0.272,-0.441 0.25,-0.436 0.231,-0.425C0.212,-0.414 0.197,-0.401 0.185,-0.384C0.173,-0.367 0.164,-0.347 0.159,-0.325C0.153,-0.303 0.15,-0.281 0.15,-0.259C0.15,-0.236 0.153,-0.214 0.159,-0.193C0.164,-0.171 0.173,-0.151 0.185,-0.134C0.197,-0.117 0.212,-0.103 0.231,-0.092C0.25,-0.081 0.272,-0.076 0.297,-0.076Z" style="fill-rule:nonzero;"/>
                </g>
                <g transform="matrix(682.555,0,0,682.555,1931.9,2023.14)">
                    <path d="M0.06,-0.517L0.168,-0.517L0.168,-0.441L0.17,-0.439C0.187,-0.468 0.21,-0.49 0.238,-0.507C0.266,-0.523 0.297,-0.531 0.331,-0.531C0.388,-0.531 0.432,-0.516 0.465,-0.487C0.498,-0.458 0.514,-0.414 0.514,-0.355L0.514,-0L0.4,-0L0.4,-0.325C0.399,-0.366 0.39,-0.395 0.374,-0.414C0.358,-0.432 0.333,-0.441 0.299,-0.441C0.28,-0.441 0.262,-0.438 0.247,-0.431C0.232,-0.424 0.219,-0.414 0.208,-0.402C0.197,-0.389 0.189,-0.375 0.183,-0.358C0.177,-0.341 0.174,-0.324 0.174,-0.305L0.174,-0L0.06,-0L0.06,-0.517Z" style="fill-rule:nonzero;"/>
                </g>
                <g transform="matrix(682.555,0,0,682.555,2323.69,2023.14)">
                    <path d="M0.008,-0.517L0.094,-0.517L0.094,-0.672L0.208,-0.672L0.208,-0.517L0.311,-0.517L0.311,-0.432L0.208,-0.432L0.208,-0.156C0.208,-0.144 0.209,-0.134 0.21,-0.125C0.211,-0.116 0.213,-0.109 0.217,-0.103C0.22,-0.097 0.226,-0.092 0.233,-0.09C0.24,-0.087 0.25,-0.085 0.263,-0.085C0.271,-0.085 0.279,-0.085 0.287,-0.086C0.295,-0.086 0.303,-0.087 0.311,-0.089L0.311,-0.001C0.298,0 0.286,0.002 0.274,0.003C0.262,0.004 0.25,0.005 0.237,0.005C0.207,0.005 0.183,0.002 0.165,-0.004C0.146,-0.009 0.132,-0.018 0.122,-0.029C0.111,-0.04 0.104,-0.053 0.101,-0.07C0.097,-0.087 0.095,-0.106 0.094,-0.127L0.094,-0.432L0.008,-0.432L0.008,-0.517Z" style="fill-rule:nonzero;"/>
                </g>
                <g transform="matrix(682.555,0,0,682.555,2550.98,2023.14)">
                    <path d="M0.415,-0.304C0.414,-0.322 0.41,-0.339 0.404,-0.356C0.397,-0.373 0.389,-0.387 0.378,-0.4C0.367,-0.412 0.353,-0.422 0.338,-0.43C0.322,-0.437 0.304,-0.441 0.285,-0.441C0.265,-0.441 0.247,-0.438 0.231,-0.431C0.214,-0.424 0.2,-0.414 0.189,-0.402C0.177,-0.389 0.168,-0.375 0.161,-0.358C0.154,-0.341 0.15,-0.323 0.149,-0.304L0.415,-0.304ZM0.149,-0.229C0.149,-0.209 0.152,-0.19 0.158,-0.171C0.163,-0.152 0.172,-0.136 0.183,-0.122C0.194,-0.108 0.209,-0.097 0.226,-0.089C0.243,-0.08 0.264,-0.076 0.288,-0.076C0.321,-0.076 0.348,-0.083 0.369,-0.098C0.389,-0.112 0.404,-0.133 0.414,-0.162L0.522,-0.162C0.516,-0.134 0.506,-0.109 0.491,-0.087C0.476,-0.065 0.459,-0.047 0.438,-0.032C0.417,-0.017 0.394,-0.005 0.369,0.003C0.343,0.01 0.316,0.014 0.288,0.014C0.247,0.014 0.211,0.007 0.18,-0.006C0.149,-0.019 0.122,-0.038 0.101,-0.062C0.079,-0.086 0.063,-0.115 0.052,-0.148C0.041,-0.181 0.035,-0.218 0.035,-0.258C0.035,-0.295 0.041,-0.329 0.053,-0.363C0.064,-0.396 0.081,-0.425 0.103,-0.45C0.124,-0.474 0.15,-0.494 0.181,-0.509C0.212,-0.524 0.246,-0.531 0.285,-0.531C0.326,-0.531 0.362,-0.523 0.395,-0.506C0.427,-0.489 0.454,-0.466 0.475,-0.438C0.496,-0.41 0.512,-0.378 0.522,-0.342C0.531,-0.305 0.534,-0.268 0.529,-0.229L0.149,-0.229Z" style="fill-rule:nonzero;"/>
                </g>
                <g transform="matrix(682.555,0,0,682.555,2930.48,2023.14)">
                    <path d="M0.06,-0.517L0.168,-0.517L0.168,-0.441L0.17,-0.439C0.187,-0.468 0.21,-0.49 0.238,-0.507C0.266,-0.523 0.297,-0.531 0.331,-0.531C0.388,-0.531 0.432,-0.516 0.465,-0.487C0.498,-0.458 0.514,-0.414 0.514,-0.355L0.514,-0L0.4,-0L0.4,-0.325C0.399,-0.366 0.39,-0.395 0.374,-0.414C0.358,-0.432 0.333,-0.441 0.299,-0.441C0.28,-0.441 0.262,-0.438 0.247,-0.431C0.232,-0.424 0.219,-0.414 0.208,-0.402C0.197,-0.389 0.189,-0.375 0.183,-0.358C0.177,-0.341 0.174,-0.324 0.174,-0.305L0.174,-0L0.06,-0L0.06,-0.517Z" style="fill-rule:nonzero;"/>
                </g>
                <g transform="matrix(682.555,0,0,682.555,3322.27,2023.14)">
                    <path d="M0.008,-0.517L0.094,-0.517L0.094,-0.672L0.208,-0.672L0.208,-0.517L0.311,-0.517L0.311,-0.432L0.208,-0.432L0.208,-0.156C0.208,-0.144 0.209,-0.134 0.21,-0.125C0.211,-0.116 0.213,-0.109 0.217,-0.103C0.22,-0.097 0.226,-0.092 0.233,-0.09C0.24,-0.087 0.25,-0.085 0.263,-0.085C0.271,-0.085 0.279,-0.085 0.287,-0.086C0.295,-0.086 0.303,-0.087 0.311,-0.089L0.311,-0.001C0.298,0 0.286,0.002 0.274,0.003C0.262,0.004 0.25,0.005 0.237,0.005C0.207,0.005 0.183,0.002 0.165,-0.004C0.146,-0.009 0.132,-0.018 0.122,-0.029C0.111,-0.04 0.104,-0.053 0.101,-0.07C0.097,-0.087 0.095,-0.106 0.094,-0.127L0.094,-0.432L0.008,-0.432L0.008,-0.517Z" style="fill-rule:nonzero;"/>
                </g>
                <g transform="matrix(682.555,0,0,682.555,3739.31,2023.14)">
                    <path d="M0.158,-0.238C0.158,-0.211 0.163,-0.187 0.172,-0.168C0.181,-0.149 0.194,-0.133 0.211,-0.121C0.228,-0.108 0.247,-0.099 0.269,-0.094C0.29,-0.088 0.314,-0.085 0.339,-0.085C0.366,-0.085 0.39,-0.088 0.409,-0.095C0.428,-0.101 0.444,-0.109 0.456,-0.119C0.468,-0.129 0.477,-0.14 0.482,-0.154C0.487,-0.167 0.49,-0.18 0.49,-0.193C0.49,-0.22 0.484,-0.241 0.472,-0.254C0.459,-0.267 0.446,-0.276 0.431,-0.281C0.406,-0.29 0.376,-0.299 0.343,-0.308C0.309,-0.316 0.267,-0.327 0.218,-0.34C0.187,-0.348 0.162,-0.359 0.142,-0.372C0.121,-0.385 0.105,-0.399 0.093,-0.415C0.081,-0.431 0.073,-0.448 0.068,-0.466C0.063,-0.484 0.06,-0.502 0.06,-0.521C0.06,-0.557 0.068,-0.588 0.083,-0.615C0.097,-0.641 0.117,-0.663 0.142,-0.68C0.167,-0.697 0.195,-0.71 0.226,-0.719C0.257,-0.727 0.289,-0.731 0.321,-0.731C0.358,-0.731 0.393,-0.726 0.427,-0.717C0.46,-0.707 0.489,-0.692 0.514,-0.673C0.539,-0.654 0.558,-0.63 0.573,-0.602C0.588,-0.573 0.595,-0.54 0.595,-0.503L0.47,-0.503C0.467,-0.549 0.451,-0.582 0.423,-0.601C0.395,-0.62 0.359,-0.629 0.316,-0.629C0.301,-0.629 0.286,-0.628 0.271,-0.625C0.256,-0.622 0.242,-0.616 0.229,-0.61C0.216,-0.603 0.206,-0.593 0.198,-0.581C0.189,-0.569 0.185,-0.554 0.185,-0.536C0.185,-0.511 0.193,-0.491 0.209,-0.477C0.224,-0.462 0.245,-0.451 0.27,-0.444C0.273,-0.443 0.283,-0.44 0.302,-0.436C0.32,-0.431 0.34,-0.425 0.363,-0.419C0.386,-0.413 0.408,-0.407 0.43,-0.402C0.451,-0.396 0.467,-0.392 0.476,-0.389C0.499,-0.382 0.52,-0.372 0.537,-0.359C0.554,-0.346 0.569,-0.332 0.581,-0.316C0.592,-0.299 0.601,-0.282 0.607,-0.263C0.612,-0.244 0.615,-0.226 0.615,-0.207C0.615,-0.167 0.607,-0.133 0.591,-0.105C0.574,-0.076 0.553,-0.053 0.526,-0.035C0.499,-0.017 0.469,-0.004 0.435,0.005C0.401,0.013 0.366,0.017 0.331,0.017C0.29,0.017 0.252,0.012 0.216,0.002C0.18,-0.008 0.149,-0.023 0.122,-0.044C0.095,-0.065 0.074,-0.091 0.058,-0.124C0.042,-0.156 0.034,-0.194 0.033,-0.238L0.158,-0.238Z" style="fill-rule:nonzero;"/>
                </g>
                <g transform="matrix(682.555,0,0,682.555,4181.6,2023.14)">
                    <path d="M0.003,-0.517L0.128,-0.517L0.263,-0.131L0.265,-0.131L0.396,-0.517L0.515,-0.517L0.314,0.028C0.305,0.051 0.296,0.074 0.287,0.095C0.278,0.116 0.267,0.135 0.254,0.152C0.241,0.168 0.224,0.181 0.205,0.191C0.186,0.2 0.161,0.205 0.131,0.205C0.104,0.205 0.078,0.203 0.052,0.199L0.052,0.103C0.061,0.104 0.07,0.106 0.079,0.108C0.088,0.109 0.097,0.11 0.106,0.11C0.119,0.11 0.13,0.108 0.139,0.105C0.148,0.102 0.155,0.097 0.161,0.091C0.166,0.084 0.171,0.077 0.175,0.068C0.179,0.059 0.183,0.049 0.186,0.038L0.199,-0.002L0.003,-0.517Z" style="fill-rule:nonzero;"/>
                </g>
                <g transform="matrix(682.555,0,0,682.555,4535.85,2023.14)">
                    <path d="M0.146,-0.166C0.149,-0.133 0.162,-0.109 0.184,-0.096C0.206,-0.083 0.232,-0.076 0.263,-0.076C0.274,-0.076 0.286,-0.077 0.3,-0.079C0.313,-0.08 0.326,-0.083 0.338,-0.088C0.35,-0.093 0.36,-0.099 0.368,-0.109C0.375,-0.117 0.379,-0.129 0.378,-0.144C0.377,-0.159 0.372,-0.171 0.362,-0.18C0.352,-0.189 0.339,-0.197 0.324,-0.203C0.308,-0.208 0.29,-0.213 0.27,-0.217C0.25,-0.221 0.23,-0.225 0.209,-0.23C0.188,-0.235 0.167,-0.24 0.148,-0.247C0.128,-0.254 0.11,-0.263 0.095,-0.274C0.079,-0.285 0.066,-0.3 0.057,-0.318C0.048,-0.335 0.043,-0.357 0.043,-0.383C0.043,-0.411 0.05,-0.435 0.064,-0.454C0.077,-0.472 0.095,-0.488 0.116,-0.5C0.136,-0.511 0.16,-0.519 0.186,-0.524C0.211,-0.529 0.236,-0.531 0.259,-0.531C0.286,-0.531 0.311,-0.528 0.336,-0.523C0.36,-0.517 0.382,-0.508 0.402,-0.495C0.421,-0.482 0.438,-0.466 0.451,-0.446C0.464,-0.425 0.472,-0.401 0.475,-0.372L0.356,-0.372C0.351,-0.399 0.338,-0.418 0.319,-0.427C0.299,-0.436 0.276,-0.441 0.251,-0.441C0.243,-0.441 0.234,-0.44 0.223,-0.439C0.212,-0.438 0.201,-0.435 0.192,-0.432C0.182,-0.428 0.174,-0.423 0.167,-0.416C0.16,-0.409 0.157,-0.399 0.157,-0.388C0.157,-0.374 0.162,-0.363 0.172,-0.354C0.181,-0.345 0.194,-0.338 0.21,-0.333C0.225,-0.327 0.243,-0.322 0.263,-0.318C0.283,-0.314 0.304,-0.31 0.325,-0.305C0.346,-0.3 0.366,-0.295 0.386,-0.288C0.406,-0.281 0.424,-0.272 0.44,-0.261C0.455,-0.25 0.468,-0.235 0.478,-0.218C0.487,-0.201 0.492,-0.179 0.492,-0.154C0.492,-0.123 0.485,-0.097 0.471,-0.076C0.457,-0.055 0.439,-0.037 0.417,-0.024C0.394,-0.011 0.369,-0.001 0.342,0.005C0.315,0.011 0.288,0.014 0.261,0.014C0.228,0.014 0.198,0.01 0.171,0.003C0.143,-0.004 0.119,-0.016 0.099,-0.031C0.078,-0.046 0.062,-0.064 0.051,-0.087C0.039,-0.109 0.033,-0.135 0.032,-0.166L0.146,-0.166Z" style="fill-rule:nonzero;"/>
                </g>
                <g transform="matrix(682.555,0,0,682.555,4890.1,2023.14)">
                    <path d="M0.008,-0.517L0.094,-0.517L0.094,-0.672L0.208,-0.672L0.208,-0.517L0.311,-0.517L0.311,-0.432L0.208,-0.432L0.208,-0.156C0.208,-0.144 0.209,-0.134 0.21,-0.125C0.211,-0.116 0.213,-0.109 0.217,-0.103C0.22,-0.097 0.226,-0.092 0.233,-0.09C0.24,-0.087 0.25,-0.085 0.263,-0.085C0.271,-0.085 0.279,-0.085 0.287,-0.086C0.295,-0.086 0.303,-0.087 0.311,-0.089L0.311,-0.001C0.298,0 0.286,0.002 0.274,0.003C0.262,0.004 0.25,0.005 0.237,0.005C0.207,0.005 0.183,0.002 0.165,-0.004C0.146,-0.009 0.132,-0.018 0.122,-0.029C0.111,-0.04 0.104,-0.053 0.101,-0.07C0.097,-0.087 0.095,-0.106 0.094,-0.127L0.094,-0.432L0.008,-0.432L0.008,-0.517Z" style="fill-rule:nonzero;"/>
                </g>
                <g transform="matrix(682.555,0,0,682.555,5117.39,2023.14)">
                    <path d="M0.415,-0.304C0.414,-0.322 0.41,-0.339 0.404,-0.356C0.397,-0.373 0.389,-0.387 0.378,-0.4C0.367,-0.412 0.353,-0.422 0.338,-0.43C0.322,-0.437 0.304,-0.441 0.285,-0.441C0.265,-0.441 0.247,-0.438 0.231,-0.431C0.214,-0.424 0.2,-0.414 0.189,-0.402C0.177,-0.389 0.168,-0.375 0.161,-0.358C0.154,-0.341 0.15,-0.323 0.149,-0.304L0.415,-0.304ZM0.149,-0.229C0.149,-0.209 0.152,-0.19 0.158,-0.171C0.163,-0.152 0.172,-0.136 0.183,-0.122C0.194,-0.108 0.209,-0.097 0.226,-0.089C0.243,-0.08 0.264,-0.076 0.288,-0.076C0.321,-0.076 0.348,-0.083 0.369,-0.098C0.389,-0.112 0.404,-0.133 0.414,-0.162L0.522,-0.162C0.516,-0.134 0.506,-0.109 0.491,-0.087C0.476,-0.065 0.459,-0.047 0.438,-0.032C0.417,-0.017 0.394,-0.005 0.369,0.003C0.343,0.01 0.316,0.014 0.288,0.014C0.247,0.014 0.211,0.007 0.18,-0.006C0.149,-0.019 0.122,-0.038 0.101,-0.062C0.079,-0.086 0.063,-0.115 0.052,-0.148C0.041,-0.181 0.035,-0.218 0.035,-0.258C0.035,-0.295 0.041,-0.329 0.053,-0.363C0.064,-0.396 0.081,-0.425 0.103,-0.45C0.124,-0.474 0.15,-0.494 0.181,-0.509C0.212,-0.524 0.246,-0.531 0.285,-0.531C0.326,-0.531 0.362,-0.523 0.395,-0.506C0.427,-0.489 0.454,-0.466 0.475,-0.438C0.496,-0.41 0.512,-0.378 0.522,-0.342C0.531,-0.305 0.534,-0.268 0.529,-0.229L0.149,-0.229Z" style="fill-rule:nonzero;"/>
                </g>
                <g transform="matrix(682.555,0,0,682.555,5496.89,2023.14)">
                    <path d="M0.06,-0.517L0.168,-0.517L0.168,-0.445L0.171,-0.445C0.18,-0.458 0.189,-0.469 0.199,-0.48C0.209,-0.491 0.22,-0.5 0.233,-0.507C0.245,-0.514 0.259,-0.52 0.275,-0.525C0.291,-0.529 0.309,-0.531 0.33,-0.531C0.361,-0.531 0.391,-0.524 0.418,-0.51C0.444,-0.496 0.464,-0.474 0.475,-0.445C0.494,-0.472 0.517,-0.493 0.542,-0.508C0.567,-0.523 0.599,-0.531 0.637,-0.531C0.692,-0.531 0.734,-0.518 0.765,-0.491C0.795,-0.464 0.81,-0.42 0.81,-0.357L0.81,-0L0.696,-0L0.696,-0.302C0.696,-0.323 0.695,-0.341 0.694,-0.359C0.693,-0.376 0.689,-0.39 0.683,-0.403C0.676,-0.415 0.667,-0.424 0.654,-0.431C0.641,-0.438 0.624,-0.441 0.602,-0.441C0.563,-0.441 0.535,-0.429 0.518,-0.405C0.501,-0.381 0.492,-0.347 0.492,-0.303L0.492,-0L0.378,-0L0.378,-0.332C0.378,-0.368 0.372,-0.395 0.359,-0.414C0.345,-0.432 0.322,-0.441 0.287,-0.441C0.272,-0.441 0.258,-0.438 0.245,-0.432C0.231,-0.426 0.219,-0.417 0.209,-0.406C0.198,-0.395 0.19,-0.381 0.184,-0.364C0.177,-0.347 0.174,-0.328 0.174,-0.307L0.174,-0L0.06,-0L0.06,-0.517Z" style="fill-rule:nonzero;"/>
                </g>
            </g>
        </g>
    </g>
</svg>
